<svg width="53" height="52" viewBox="0 0 53 52" fill="none" xmlns="http://www.w3.org/2000/svg">
<g filter="url(#filter0_d_324_5468)">
<rect x="4.3335" width="44" height="44" rx="22" fill="#FFD11A" shape-rendering="crispEdges"/>
<path fill-rule="evenodd" clip-rule="evenodd" d="M23.2085 15.125L32.5835 15.125C32.7493 15.125 32.9082 15.1908 33.0254 15.3081C33.1426 15.4253 33.2085 15.5842 33.2085 15.75V25.125C33.2085 25.4702 32.9287 25.75 32.5835 25.75C32.2383 25.75 31.9585 25.4702 31.9585 25.125V17.2589L20.5254 28.6919C20.2814 28.936 19.8856 28.936 19.6416 28.6919C19.3975 28.4479 19.3975 28.0521 19.6416 27.8081L31.0746 16.375L23.2085 16.375C22.8633 16.375 22.5835 16.0952 22.5835 15.75C22.5835 15.4048 22.8633 15.125 23.2085 15.125Z" fill="#141414"/>
</g>
<defs>
<filter id="filter0_d_324_5468" x="0.333496" y="0" width="52" height="52" filterUnits="userSpaceOnUse" color-interpolation-filters="sRGB">
<feFlood flood-opacity="0" result="BackgroundImageFix"/>
<feColorMatrix in="SourceAlpha" type="matrix" values="0 0 0 0 0 0 0 0 0 0 0 0 0 0 0 0 0 0 127 0" result="hardAlpha"/>
<feOffset dy="4"/>
<feGaussianBlur stdDeviation="2"/>
<feComposite in2="hardAlpha" operator="out"/>
<feColorMatrix type="matrix" values="0 0 0 0 0 0 0 0 0 0 0 0 0 0 0 0 0 0 0.25 0"/>
<feBlend mode="normal" in2="BackgroundImageFix" result="effect1_dropShadow_324_5468"/>
<feBlend mode="normal" in="SourceGraphic" in2="effect1_dropShadow_324_5468" result="shape"/>
</filter>
</defs>
</svg>
