<svg width="44" height="45" viewBox="0 0 44 45" fill="none" xmlns="http://www.w3.org/2000/svg">
<rect y="0.5" width="44" height="44" rx="22" fill="#FFD11A"/>
<path fill-rule="evenodd" clip-rule="evenodd" d="M18.875 15.625L28.25 15.625C28.4158 15.625 28.5747 15.6908 28.6919 15.8081C28.8092 15.9253 28.875 16.0842 28.875 16.25V25.625C28.875 25.9702 28.5952 26.25 28.25 26.25C27.9048 26.25 27.625 25.9702 27.625 25.625V17.7589L16.1919 29.1919C15.9479 29.436 15.5521 29.436 15.3081 29.1919C15.064 28.9479 15.064 28.5521 15.3081 28.3081L26.7411 16.875L18.875 16.875C18.5298 16.875 18.25 16.5952 18.25 16.25C18.25 15.9048 18.5298 15.625 18.875 15.625Z" fill="#141414"/>
</svg>
