<svg width="48" height="49" viewBox="0 0 48 49" fill="none" xmlns="http://www.w3.org/2000/svg">
<path d="M34.5 35C42.5048 33.0731 48 29.0949 48 24.5C48 19.9051 42.5048 15.9269 34.5 14C35.3235 17.1594 35.787 20.7257 35.787 24.5C35.787 28.2743 35.3235 31.8406 34.5 35Z" fill="#404040"/>
<path d="M13.5 35C5.49518 33.0731 0 29.0949 0 24.5C0 19.9051 5.49518 15.9269 13.5 14C12.6765 17.1594 12.213 20.7257 12.213 24.5C12.213 28.2743 12.6765 31.8406 13.5 35Z" fill="#404040"/>
<path d="M13.5 35C15.4269 43.0048 19.4051 48.5 24 48.5C28.5949 48.5 32.5731 43.0048 34.5 35C31.3406 35.8235 27.7743 36.287 24 36.287C20.2257 36.287 16.6594 35.8235 13.5 35Z" fill="#FFD11A"/>
<path d="M13.5 14C15.4269 5.99518 19.4051 0.5 24 0.5C28.5949 0.5 32.5731 5.99518 34.5 14C31.3406 13.1765 27.7743 12.713 24 12.713C20.2257 12.713 16.6594 13.1765 13.5 14Z" fill="#FFD11A"/>
</svg>
